HIERARCHY
ROOT Hips
{
    OFFSET 0.000000 0.000000 0.000000
    CHANNELS 6 Xposition Yposition Zposition Zrotation Xrotation Yrotation
    JOINT Spine
    {
        OFFSET 0.000001 8.281923 0.000004
        CHANNELS 3 Zrotation Xrotation Yrotation
        JOINT Spine1
        {
            OFFSET -0.000004 23.973854 -0.000009
            CHANNELS 3 Zrotation Xrotation Yrotation
            JOINT Neck
            {
                OFFSET -0.000000 26.668362 0.000000
                CHANNELS 3 Zrotation Xrotation Yrotation
                JOINT Head
                {
                    OFFSET -0.000001 16.369625 2.035154
                    CHANNELS 3 Zrotation Xrotation Yrotation
                    End Site
                    {
                        OFFSET 0.000000 20.351660 0.000000
                    }
                }
            }
            JOINT LeftShoulder
            {
                OFFSET 4.036575 20.304850 -0.371899
                CHANNELS 3 Zrotation Xrotation Yrotation
                JOINT LeftArm
                {
                    OFFSET 12.502554 0.000004 0.000009
                    CHANNELS 3 Zrotation Xrotation Yrotation
                    JOINT LeftForeArm
                    {
                        OFFSET 31.806910 -0.000001 0.000006
                        CHANNELS 3 Zrotation Xrotation Yrotation
                        JOINT LeftHand
                        {
                            OFFSET 24.843231 -0.000000 0.000000
                            CHANNELS 3 Zrotation Xrotation Yrotation
                            JOINT LeftHandThumb1
                            {
                                OFFSET 2.126752 -2.416754 3.383463
                                CHANNELS 3 Zrotation Xrotation Yrotation
                                JOINT LeftHandThumb2
                                {
                                    OFFSET 3.212131 0.000003 0.000002
                                    CHANNELS 3 Zrotation Xrotation Yrotation
                                    JOINT LeftHandThumb3
                                    {
                                        OFFSET 2.745431 0.000005 0.000001
                                        CHANNELS 3 Zrotation Xrotation Yrotation
                                        End Site
                                        {
                                            OFFSET 2.793713 0.000000 0.000000
                                        }
                                    }
                                }
                            }
                            JOINT LeftHandIndex1
                            {
                                OFFSET 8.700339 -0.000006 3.383458
                                CHANNELS 3 Zrotation Xrotation Yrotation
                                JOINT LeftHandIndex2
                                {
                                    OFFSET 4.833529 0.000002 -0.000007
                                    CHANNELS 3 Zrotation Xrotation Yrotation
                                    JOINT LeftHandIndex3
                                    {
                                        OFFSET 2.416755 0.000004 0.000003
                                        CHANNELS 3 Zrotation Xrotation Yrotation
                                        End Site
                                        {
                                            OFFSET 2.459254 0.000000 0.000000
                                        }
                                    }
                                }
                            }
                            JOINT LeftHandMiddle1
                            {
                                OFFSET 8.700336 -0.000001 1.121373
                                CHANNELS 3 Zrotation Xrotation Yrotation
                                JOINT LeftHandMiddle2
                                {
                                    OFFSET 5.316878 -0.000005 -0.000006
                                    CHANNELS 3 Zrotation Xrotation Yrotation
                                    JOINT LeftHandMiddle3
                                    {
                                        OFFSET 2.900107 0.000006 0.000005
                                        CHANNELS 3 Zrotation Xrotation Yrotation
                                        End Site
                                        {
                                            OFFSET 2.951103 0.000000 0.000000
                                        }
                                    }
                                }
                            }
                            JOINT LeftHandRing1
                            {
                                OFFSET 8.216981 -0.000006 -1.121378
                                CHANNELS 3 Zrotation Xrotation Yrotation
                                JOINT LeftHandRing2
                                {
                                    OFFSET 4.833529 0.000003 -0.000006
                                    CHANNELS 3 Zrotation Xrotation Yrotation
                                    JOINT LeftHandRing3
                                    {
                                        OFFSET 2.416755 0.000003 0.000004
                                        CHANNELS 3 Zrotation Xrotation Yrotation
                                        End Site
                                        {
                                            OFFSET 2.459254 0.000000 0.000000
                                        }
                                    }
                                }
                            }
                            JOINT LeftHandPinky1
                            {
                                OFFSET 7.733627 -0.000004 -3.383463
                                CHANNELS 3 Zrotation Xrotation Yrotation
                                JOINT LeftHandPinky2
                                {
                                    OFFSET 3.866807 -0.000000 0.000006
                                    CHANNELS 3 Zrotation Xrotation Yrotation
                                    JOINT LeftHandPinky3
                                    {
                                        OFFSET 1.933403 -0.000000 0.000003
                                        CHANNELS 3 Zrotation Xrotation Yrotation
                                        End Site
                                        {
                                            OFFSET 1.967405 0.000000 0.000000
                                        }
                                    }
                                }
                            }
                        }
                    }
                }
            }
            JOINT RightShoulder
            {
                OFFSET -4.036573 20.304850 -0.371916
                CHANNELS 3 Zrotation Xrotation Yrotation
                JOINT RightArm
                {
                    OFFSET -12.502546 0.000003 0.000011
                    CHANNELS 3 Zrotation Xrotation Yrotation
                    JOINT RightForeArm
                    {
                        OFFSET -31.806908 0.000000 0.000003
                        CHANNELS 3 Zrotation Xrotation Yrotation
                        JOINT RightHand
                        {
                            OFFSET -24.843231 0.000000 -0.000001
                            CHANNELS 3 Zrotation Xrotation Yrotation
                            JOINT RightHandThumb1
                            {
                                OFFSET -2.126749 -2.416758 3.383464
                                CHANNELS 3 Zrotation Xrotation Yrotation
                                JOINT RightHandThumb2
                                {
                                    OFFSET -3.212134 0.000004 -0.000001
                                    CHANNELS 3 Zrotation Xrotation Yrotation
                                    JOINT RightHandThumb3
                                    {
                                        OFFSET -2.745440 -0.000003 0.000001
                                        CHANNELS 3 Zrotation Xrotation Yrotation
                                        End Site
                                        {
                                            OFFSET -2.793713 0.000000 0.000000
                                        }
                                    }
                                }
                            }
                            JOINT RightHandIndex1
                            {
                                OFFSET -8.700320 -0.000001 3.383456
                                CHANNELS 3 Zrotation Xrotation Yrotation
                                JOINT RightHandIndex2
                                {
                                    OFFSET -4.833521 0.000008 0.000009
                                    CHANNELS 3 Zrotation Xrotation Yrotation
                                    JOINT RightHandIndex3
                                    {
                                        OFFSET -2.416752 -0.000000 -0.000003
                                        CHANNELS 3 Zrotation Xrotation Yrotation
                                        End Site
                                        {
                                            OFFSET -2.459254 0.000000 0.000000
                                        }
                                    }
                                }
                            }
                            JOINT RightHandMiddle1
                            {
                                OFFSET -8.700326 -0.000004 1.121370
                                CHANNELS 3 Zrotation Xrotation Yrotation
                                JOINT RightHandMiddle2
                                {
                                    OFFSET -5.316868 -0.000003 -0.000004
                                    CHANNELS 3 Zrotation Xrotation Yrotation
                                    JOINT RightHandMiddle3
                                    {
                                        OFFSET -2.900111 0.000000 0.000001
                                        CHANNELS 3 Zrotation Xrotation Yrotation
                                        End Site
                                        {
                                            OFFSET -2.951103 0.000000 0.000000
                                        }
                                    }
                                }
                            }
                            JOINT RightHandRing1
                            {
                                OFFSET -8.216986 0.000000 -1.121368
                                CHANNELS 3 Zrotation Xrotation Yrotation
                                JOINT RightHandRing2
                                {
                                    OFFSET -4.833525 0.000002 0.000007
                                    CHANNELS 3 Zrotation Xrotation Yrotation
                                    JOINT RightHandRing3
                                    {
                                        OFFSET -2.416752 0.000000 -0.000003
                                        CHANNELS 3 Zrotation Xrotation Yrotation
                                        End Site
                                        {
                                            OFFSET -2.459254 0.000000 0.000000
                                        }
                                    }
                                }
                            }
                            JOINT RightHandPinky1
                            {
                                OFFSET -7.733630 0.000002 -3.383458
                                CHANNELS 3 Zrotation Xrotation Yrotation
                                JOINT RightHandPinky2
                                {
                                    OFFSET -3.866810 -0.000001 -0.000004
                                    CHANNELS 3 Zrotation Xrotation Yrotation
                                    JOINT RightHandPinky3
                                    {
                                        OFFSET -1.933413 0.000001 0.000007
                                        CHANNELS 3 Zrotation Xrotation Yrotation
                                        End Site
                                        {
                                            OFFSET -1.967405 0.000000 0.000000
                                        }
                                    }
                                }
                            }
                        }
                    }
                }
            }
        }
    }
    JOINT LeftUpLeg
    {
        OFFSET 10.175824 -0.000003 -0.000004
        CHANNELS 3 Zrotation Xrotation Yrotation
        JOINT LeftLeg
        {
            OFFSET 0.000003 -42.882950 0.000007
            CHANNELS 3 Zrotation Xrotation Yrotation
            JOINT LeftFoot
            {
                OFFSET 0.000001 -39.006771 0.000001
                CHANNELS 3 Zrotation Xrotation Yrotation
                JOINT LeftToeBase
                {
                    OFFSET -0.000003 -6.614287 15.263732
                    CHANNELS 3 Zrotation Xrotation Yrotation
                    End Site
                    {
                        OFFSET 0.000000 0.000000 4.070332
                    }
                }
            }
        }
    }
    JOINT RightUpLeg
    {
        OFFSET -10.175825 0.000003 0.000004
        CHANNELS 3 Zrotation Xrotation Yrotation
        JOINT RightLeg
        {
            OFFSET 0.000000 -42.882950 0.000001
            CHANNELS 3 Zrotation Xrotation Yrotation
            JOINT RightFoot
            {
                OFFSET 0.000001 -39.006771 0.000001
                CHANNELS 3 Zrotation Xrotation Yrotation
                JOINT RightToeBase
                {
                    OFFSET -0.000001 -6.614287 15.263741
                    CHANNELS 3 Zrotation Xrotation Yrotation
                    End Site
                    {
                        OFFSET 0.000000 0.000000 4.070332
                    }
                }
            }
        }
    }
}
MOTION
Frames:    4
Frame Time:    0.002778
-1.007106    85.449409    228.987595    5.700121    -2.326071    -14.120432    0.272613    7.861885    2.832944    1.363059    7.859775    2.683802    3.643453    -0.881314    -0.036319    3.643458    -0.881310    -0.036326    -5.874482    -0.542129    -2.927754    -62.450333    14.306479    -13.090479    -13.374367    4.730259    -121.945091    23.151962    7.489922    17.289797    47.448204    38.866428    -34.355030    -35.000000    0.000001    0.000006    -0.000000    0.000000    -0.000000    -0.000007    10.000002    0.000002    -0.000000    0.000000    -0.000000    -0.000000    0.000000    -0.000000    -0.000000    0.000000    -0.000000    -0.000000    0.000000    -0.000000    -0.000000    0.000000    -0.000000    -0.000000    0.000000    -0.000000    -0.000000    0.000000    -0.000000    -0.000000    0.000000    -0.000000    -0.000004    -9.999996    -0.000004    -0.000000    0.000000    -0.000000    -0.000000    0.000000    -0.000000    0.311398    2.466184    3.810628    35.734501    2.449788    34.255222    -20.896948    -16.020369    78.548241    -8.177417    5.859667    -34.338516    -47.448212    38.866432    34.355034    35.000000    0.000003    -0.000002    -0.000000    0.000000    -0.000000    0.000000    9.999997    -0.000001    -0.000000    0.000000    -0.000000    -0.000000    0.000000    -0.000000    -0.000000    0.000000    -0.000000    -0.000000    0.000000    -0.000000    -0.000000    0.000000    -0.000000    -0.000000    0.000000    -0.000000    -0.000000    0.000000    -0.000000    -0.000000    0.000000    -0.000000    -0.000006    -9.999991    -0.000010    -0.000000    0.000000    -0.000000    -0.000000    0.000000    -0.000000    6.654835    -16.416481    -0.009820    -0.000002    53.455559    0.000001    -16.472361    -36.889450    11.450642    -0.000000    -1.713895    -0.000000    -19.986681    -30.252420    -4.471816    -0.000001    61.458965    0.000003    16.328268    -28.373005    -5.400078    -0.000000    -0.669448    -0.000003    
-0.992743    85.556847    229.007004    5.689313    -2.295651    -14.225765    0.274313    7.825026    2.769601    1.371546    7.822900    2.620238    3.667190    -0.857355    0.042428    3.667194    -0.857353    0.042427    -5.892486    -0.589040    -2.905848    -62.413795    14.420932    -13.172919    -13.416284    4.725448    -121.977386    23.172709    7.493222    17.281313    47.448200    38.866432    -34.355034    -34.999989    -0.000006    -0.000000    -0.000000    0.000000    -0.000000    -0.000004    10.000003    0.000002    -0.000000    0.000000    -0.000000    -0.000000    0.000000    -0.000000    -0.000000    0.000000    -0.000000    -0.000000    0.000000    -0.000000    -0.000000    0.000000    -0.000000    -0.000000    0.000000    -0.000000    -0.000000    0.000000    -0.000000    -0.000000    0.000000    -0.000000    -0.000004    -9.999996    -0.000004    -0.000000    0.000000    -0.000000    -0.000000    0.000000    -0.000000    0.268675    2.492537    3.766923    35.951572    2.618176    34.170368    -20.981014    -16.027088    78.711380    -8.217208    5.892032    -34.351086    -47.448212    38.866432    34.355026    35.000000    0.000000    0.000006    -0.000000    0.000000    -0.000000    -0.000000    10.000001    0.000000    -0.000000    0.000000    -0.000000    -0.000000    0.000000    -0.000000    -0.000000    0.000000    -0.000000    -0.000000    0.000000    -0.000000    -0.000000    0.000000    -0.000000    -0.000000    0.000000    -0.000000    -0.000000    0.000000    -0.000000    -0.000000    0.000000    -0.000000    0.000003    -9.999995    -0.000004    -0.000000    0.000000    -0.000000    -0.000000    0.000000    -0.000000    6.631351    -16.267050    0.002879    -0.000005    53.142262    0.000004    -16.420254    -36.775936    11.609662    0.000000    -1.703342    -0.000001    -19.935114    -30.157314    -4.432364    -0.000001    61.140205    -0.000002    16.325399    -28.223114    -5.388059    0.000000    -0.659528    -0.000006    
-0.985530    85.668144    229.030579    5.680228    -2.264433    -14.334134    0.275030    7.785131    2.708996    1.375139    7.783005    2.559997    3.693261    -0.829632    0.119323    3.693263    -0.829630    0.119322    -5.903178    -0.628459    -2.865231    -62.362133    14.533473    -13.261521    -13.440465    4.701104    -121.992645    23.175146    7.487204    17.266802    47.448196    38.866428    -34.355011    -34.999996    -0.000001    -0.000011    -0.000000    0.000000    -0.000000    -0.000007    9.999994    -0.000001    -0.000000    0.000000    -0.000000    -0.000000    0.000000    -0.000000    -0.000000    0.000000    -0.000000    -0.000000    0.000000    -0.000000    -0.000000    0.000000    -0.000000    -0.000000    0.000000    -0.000000    -0.000000    0.000000    -0.000000    -0.000000    0.000000    -0.000000    -0.000003    -10.000003    0.000003    -0.000000    0.000000    -0.000000    -0.000000    0.000000    -0.000000    0.214803    2.517436    3.719140    36.167488    2.779651    34.074001    -21.031723    -16.033386    78.871490    -8.242919    5.916667    -34.375538    -47.448208    38.866421    34.355030    35.000000    -0.000000    0.000004    -0.000000    0.000000    -0.000000    0.000001    9.999995    0.000011    -0.000000    0.000000    -0.000000    -0.000000    0.000000    -0.000000    -0.000000    0.000000    -0.000000    -0.000000    0.000000    -0.000000    -0.000000    0.000000    -0.000000    -0.000000    0.000000    -0.000000    -0.000000    0.000000    -0.000000    -0.000000    0.000000    -0.000000    0.000004    -10.000002    0.000010    -0.000000    0.000000    -0.000000    -0.000000    0.000000    -0.000000    6.613253    -16.109627    0.019452    -0.000007    52.820541    0.000006    -16.390100    -36.657925    11.750969    -0.000000    -1.686635    0.000000    -19.889191    -30.057272    -4.406336    -0.000001    60.819344    -0.000001    16.309784    -28.056721    -5.358778    -0.000000    -0.657372    0.000003    
-0.979247    85.779999    229.056198    5.670845    -2.233320    -14.439312    0.276115    7.744824    2.641686    1.380577    7.742697    2.492860    3.719122    -0.806067    0.198909    3.719121    -0.806068    0.198907    -5.926257    -0.666209    -2.843997    -62.322731    14.610520    -13.338444    -13.444069    4.689807    -122.029579    23.186794    7.483230    17.249193    47.448212    38.866428    -34.355038    -35.000008    -0.000003    -0.000004    -0.000000    0.000000    -0.000000    0.000000    10.000001    -0.000003    -0.000000    0.000000    -0.000000    -0.000000    0.000000    -0.000000    -0.000000    0.000000    -0.000000    -0.000000    0.000000    -0.000000    -0.000000    0.000000    -0.000000    -0.000000    0.000000    -0.000000    -0.000000    0.000000    -0.000000    -0.000000    0.000000    -0.000000    -0.000003    -10.000000    -0.000000    -0.000000    0.000000    -0.000000    -0.000000    0.000000    -0.000000    0.155625    2.550374    3.665134    36.377388    2.953174    33.970638    -21.060198    -16.055431    79.060852    -8.238720    5.912194    -34.363476    -47.448219    38.866428    34.355049    35.000000    -0.000002    0.000001    -0.000000    0.000000    -0.000000    0.000003    9.999999    0.000005    -0.000000    0.000000    -0.000000    -0.000000    0.000000    -0.000000    -0.000000    0.000000    -0.000000    -0.000000    0.000000    -0.000000    -0.000000    0.000000    -0.000000    -0.000000    0.000000    -0.000000    -0.000000    0.000000    -0.000000    -0.000000    0.000000    -0.000000    0.000006    -10.000004    0.000012    -0.000000    0.000000    -0.000000    -0.000000    0.000000    -0.000000    6.595032    -15.949311    0.035906    -0.000002    52.489956    0.000001    -16.353207    -36.533371    11.902281    -0.000000    -1.671045    -0.000000    -19.834837    -29.955324    -4.369512    -0.000001    60.494438    0.000001    16.304193    -27.902580    -5.342754    0.000000    -0.653317    -0.000004    
